PathFileType	4	(X/Y/Z)	33_1_12_p1_0-231.trc
DataRate	CameraRate	NumFrames	NumMarkers	Units	OrigDataRate	OrigDataStartFrame	OrigNumFrames
59.0	59.0	6	27	m	59.0	87	232
Frame#	Time	RHip			RKnee			RAnkle			RBigToe			RSmallToe			RHeel			LHip			LKnee			LAnkle			LBigToe			LSmallToe			LHeel			Neck			Head			Nose			RShoulder			RElbow			RWrist			RThumb			RIndex			RPinky			LShoulder			LElbow			LWrist			LThumb			LIndex			LPinky			
		X1	Y1	Z1	X2	Y2	Z2	X3	Y3	Z3	X4	Y4	Z4	X5	Y5	Z5	X6	Y6	Z6	X7	Y7	Z7	X8	Y8	Z8	X9	Y9	Z9	X10	Y10	Z10	X11	Y11	Z11	X12	Y12	Z12	X13	Y13	Z13	X14	Y14	Z14	X15	Y15	Z15	X16	Y16	Z16	X17	Y17	Z17	X18	Y18	Z18	X19	Y19	Z19	X20	Y20	Z20	X21	Y21	Z21	X22	Y22	Z22	X23	Y23	Z23	X24	Y24	Z24	X25	Y25	Z25	X26	Y26	Z26	X27	Y27	Z27	
87	1.4745762711864407	0.30388168010915917	0.27191992051232466	0.18181468353796978	0.2593763845331309	0.4881424052506175	0.5608052112616057	0.2440068539683205	0.7240107206617891	0.9152898030437729	0.2493241856396749	0.5573982651076427	0.9982085617644091	0.3103480171382266	0.6057124340648655	0.9949296602852239	0.21304298347259978	0.820679953402606	0.9694726973949209	0.08113049986059122	0.2646164245977635	0.18205239308844523	0.09427847454250174	0.49694741832694933	0.5556409401592701	0.08504499807833317	0.7723648532074665	0.945614292867803	0.10215404155113018	0.5713820151461323	1.0151130208898347	0.0489757477834288	0.6393283737853059	1.0069782461220385	0.0888670019623486	0.8388718909244927	0.9884488370614564	0.21169535298809913	-0.0075615613393002976	-0.3621600290952812	0.2177048189338393	-0.16238167376430723	-0.5498260644421346	0.21644834194340437	-0.16172055108837635	-0.40217372314184113	0.35980708618264595	0.08586006221307894	-0.2909760134358712	0.41084502551503826	0.2210516092070914	-0.044411513429569116	0.41880349180287196	0.24823684795743423	0.2219662373808652	0.3636997980165298	0.24259033031974991	0.3430353131281703	0.3882038604288225	0.25588252433464487	0.365577349704486	0.40655356249560287	0.34656479060429873	0.33273597743868105	0.04387434972662587	0.035399499502634206	-0.2917587054262845	-0.03320067197754488	0.19315663965276494	-0.05715567883127441	-0.05062276288569667	0.26539003260495786	0.1853794434283953	-0.027756878384764882	0.34867755178561627	0.2785173481281322	-0.055853961078869446	0.33198119761701855	0.3118115928190039	-0.0670053944420986	0.3135680872764861	0.29000818207411205
88	1.4915254237288136	0.3039158541424611	0.2720987569096147	0.1814892601288027	0.26340932379048226	0.4905710906425327	0.5603789004419238	0.24397559818681314	0.7243048146946803	0.9154165684646067	0.249504320540559	0.556993214279834	0.9980815799021255	0.3104405237555711	0.6054721176079914	0.9948298039678675	0.21309441228624726	0.8208443095903519	0.9692791734434478	0.07888725221433213	0.2482565635672147	0.1772037628478527	0.09475798433175456	0.4940386354749429	0.5481030222630006	0.08389395245471037	0.7747079235889971	0.9493792922677177	0.10163896148921013	0.5675892980588988	1.010850917313473	0.05535434314894226	0.6220332592051511	1.0049184868113024	0.08888163414519851	0.8396417999092771	0.9885703717180732	0.21168392201565434	-0.007636214452613691	-0.3621882917890969	0.21789528619870266	-0.1623886578301828	-0.5498596029629155	0.21655176619024594	-0.16180391088373772	-0.4021822613262686	0.35965055120367123	0.08456847128972989	-0.2941081994643246	0.41054381529404654	0.22011338116439697	-0.04834369981454034	0.41878423971045964	0.24819880781952625	0.2219997893986889	0.36646337584696237	0.25616006156111637	0.3442679223096489	0.3911180110766167	0.26807373976352167	0.364464571758819	0.40175278553156035	0.36321656101456007	0.3337982775009874	0.04406678114129068	0.03421431532438587	-0.29464899380685156	-0.033078523359163496	0.1954955643654302	-0.05453205253592073	-0.046713054076242384	0.2683972030964126	0.1846482317644207	-0.032787466048976324	0.36069293520346496	0.2740798282920398	-0.0555936510076524	0.33214778539011147	0.3111816082706189	-0.06286492278936677	0.31551589245528533	0.28928044038116024
89	1.5084745762711864	0.30348042815605364	0.2698466004305516	0.17810775549715674	0.26428052863953344	0.4884776825756573	0.5564824489540954	0.24398513588508722	0.7242629699849749	0.9153292186735975	0.2495002384392945	0.5572262291644621	0.9982463886645523	0.3128925614299184	0.6193354415267128	0.9959822701665305	0.2130204577716632	0.8208520543363529	0.9693106175190603	0.08497572156725697	0.23762454761403154	0.1829620091927556	0.0990229241157083	0.4961648326654066	0.5476644611354823	0.08503574212783029	0.7724857375552823	0.945558944885597	0.10214418442408006	0.5713703308051278	1.014943824976107	0.048993954841793926	0.639169912311224	1.0069274902111265	0.08940714287271996	0.834833739298548	0.9788290702627481	0.2096838907152812	-0.01659134870169401	-0.3547104678654336	0.2178963712526305	-0.16268411866590912	-0.5498260861456011	0.22502165963740928	-0.17084462288748292	-0.39829587588696497	0.3597061941801481	0.08444871213051647	-0.29415305537517583	0.4104462566328178	0.22011962054196532	-0.04850900294834086	0.41847875924840683	0.2477433512792811	0.21853253254006236	0.36884927914402243	0.26770540801075576	0.3425329211898776	0.39372435548417706	0.2810257464481989	0.3626480474742154	0.3979151058115775	0.37781120588576184	0.32862063864795815	0.04403900602369929	0.034244323575221114	-0.29465873843392326	-0.03261382602728387	0.19430949139636194	-0.05801235368873536	-0.046849660737258776	0.2687512460265553	0.18445061261555934	-0.03295419988477554	0.359542565937889	0.26933402876997264	-0.0518995369654792	0.33208400340731403	0.3027019704476584	-0.061919882445417206	0.3140267798178053	0.28608576869049723
90	1.5254237288135593	0.30607398872343955	0.281652647874642	0.17572652706641773	0.25938478039276297	0.48788787402543715	0.5605181317599938	0.24402768577067263	0.7240804039066947	0.9153846926804313	0.24940121456537165	0.556865510186449	0.9982422367515862	0.31007265235632686	0.604851981454012	0.9906021075274999	0.21295054839986774	0.8208567897718554	0.9698721181502759	0.08649145281547826	0.2475542722985594	0.17694703312025986	0.09888552824076592	0.4967692081699766	0.547783274176444	0.08505835801211326	0.7725712455636647	0.945531083720045	0.10102915150893316	0.567448855025919	1.006773162759362	0.048861745819154805	0.6396406551074797	1.006973778018964	0.08946414184032424	0.8351387756279899	0.9788316266351315	0.2096821518433318	-0.01680532016726721	-0.3546360677465513	0.2178320518043898	-0.16294032326178723	-0.5497801887478312	0.23585860974812653	-0.1702580474297848	-0.3986575083151784	0.3597325197804015	0.08429401791677275	-0.294218049269548	0.4103383690122198	0.21866426758755578	-0.052295515627889366	0.4185445496565398	0.2481914665832952	0.2183682688980886	0.37151475617169577	0.27941025843731476	0.3409080499466593	0.3990558546262116	0.2827441960424942	0.35901595099279576	0.3987934514383192	0.38108422838426886	0.3314746794032964	0.043989978112751765	0.03428665282072306	-0.2947579160938717	-0.031584540487183704	0.20419882106303155	-0.06420554879332417	-0.04539187562039229	0.28232886260088536	0.18185390591084816	-0.031423328152094525	0.37177271834888836	0.26466235930942567	-0.05105515189109559	0.3327097993819574	0.3015838211792637	-0.0613251739235922	0.3161632342759802	0.2855821189630032
91	1.5423728813559323	0.299106866358749	0.2674699005734059	0.17858652134908876	0.25938843790593474	0.48191309301636576	0.5487826898368892	0.24401420692064124	0.7241536051027256	0.915482263493534	0.24836300381205623	0.5589385854172939	1.0022649758399382	0.3128686881949475	0.619290404301431	0.9960669851962093	0.21763030882585802	0.8223809443467671	0.9696260077753445	0.08645545973584937	0.2473819824219463	0.1769778960913154	0.09693555399170674	0.48233572076242337	0.5485929254119466	0.08819985544690993	0.7768535088563381	0.9491620912490467	0.1011384793306574	0.5673116512791849	1.006778599449426	0.04901153019215665	0.6393956804862526	1.0068539211815737	0.09238712596288061	0.8436682228879202	0.9843765033542246	0.20967432796100519	-0.01698200041980169	-0.35452031253836325	0.2178561885736532	-0.1631073295754073	-0.5497049847233823	0.2360606020134197	-0.17038015389052302	-0.3985982236635974	0.35947110250811687	0.08199728039970339	-0.2972539124953638	0.4099528733416067	0.2161979381005135	-0.05535856103427661	0.4145736098586081	0.24569966256309372	0.21519313265966752	0.37401657413991335	0.2896453106004038	0.3363872555376994	0.4064166793939451	0.2966264813318574	0.35719363486503597	0.39835850065320977	0.37938142241378564	0.3279666877925222	0.04017934605061506	0.03242027721869977	-0.29398238945651717	-0.031705032215391435	0.2017568688397253	-0.06711518045789963	-0.044632528450686736	0.2809300347284779	0.1785104052922721	-0.025711585331711154	0.3596832890106177	0.2690859353749714	-0.05054899531204923	0.32979663204687437	0.29805900711510613	-0.06022470613360869	0.3299634142623513	0.28328961255372986
92	1.5593220338983051	0.3017278118356535	0.2792498075979138	0.17630775670558863	0.2603501152927851	0.4859148619017004	0.5566488093424865	0.24398417143366022	0.7244244430989173	0.9154893502819467	0.248329707982412	0.5584193351504106	1.002545560079007	0.3128621185400993	0.6189984284313091	0.996305071133158	0.21805550459184986	0.8260971733616966	0.9699262237333449	0.08733743539548004	0.24852033489436035	0.17740967775804717	0.0978152255750515	0.4801070229103616	0.5450413254796043	0.08821864917565285	0.77687916796237	0.949127735801304	0.10120152608036997	0.5673628765777496	1.0068744809608794	0.0491097899843778	0.6390833078501448	1.0067795034410745	0.09248513778644935	0.8440764148560671	0.9844215381472544	0.20965558018785588	-0.01700867963510136	-0.35450576133722966	0.21779380665034842	-0.16291597284342796	-0.549808494285391	0.23958925131942432	-0.1691364145220699	-0.3992173522272484	0.35952088426971296	0.08182967574155081	-0.29733120263535673	0.4143103548652409	0.202205442296154	-0.05176842018296921	0.4146933047037725	0.24558241380035933	0.21504071093955138	0.3740721365977573	0.2906984336911827	0.3320690678241191	0.40576894713933864	0.2944510996298785	0.35326481086668	0.3983248155720188	0.37917066774679425	0.3280376447663324	0.040146535282068435	0.03241116830153251	-0.2939276626237886	-0.03157580506927484	0.20437625501364634	-0.06438061448791162	-0.044686800624110797	0.2811152829268339	0.1782316971339014	-0.024777334627221308	0.3582456137046177	0.2663947162675593	-0.049183075687444545	0.34227274264155827	0.29532046478775703	-0.0600384879551548	0.3300808200221294	0.2831110192462744
